<svg id="Layer_1" data-name="Layer 1" xmlns="http://www.w3.org/2000/svg" width="943.321" height="717.753"><defs><style>.cls-1{fill:#d8eae4;opacity:.67}.cls-1,.cls-12{isolation:isolate}.cls-2{opacity:.42}.cls-3{fill:#59d3db}.cls-5{fill:#008ea7}.cls-6{fill:#a1cae1}.cls-9{fill:#c1c34a}.cls-12{fill:#97993a;opacity:.53}.cls-13{fill:#234c5b}</style></defs><path class="cls-1" d="M666.239 621.72c-3.306 1.254-6.612 2.508-9.926 3.54-168.413 57.243-243.73-157.964-108.491-254.805 44.703-31.996 97.302-52.59 139.072-88.449 36.796-31.628 70.549-77.454 119.122-77.204 21.67.143 42.4 10.171 59.041 24.171 31.896 26.938 50.058 69.343 47.552 110.937-7.142 118.634-138.976 240.67-246.37 281.81z"/><path class="cls-1" d="M469.812 433.955c-71.362-72.468-203.244-69.293-257.175-155.563-19.16-30.604-25.751-69.612-52.217-94.175-35.915-33.394-100.075-23.724-129.578 15.55C1.346 238.94 6.536 298 37.225 336.266c16.508 20.51 38.886 35.49 55.18 56.187 31.764 40.24 35.89 95.622 60.12 140.784 44.88 83.679 156.167 116.848 247.37 90.392 85.597-25.015 142.877-115.599 69.917-189.674z"/><g class="cls-2"><path class="cls-3" d="M118.59 196.54c27.9-16.4 62-11.8 88.6 5.1a100.137 100.137 0 0131.4 31.4c7.6 12.1 13 25.5 18.4 38.7 9.8 24 20.9 52.2 44.9 65.5 14.2 7.9 31.3 7.3 46.1 13.7a110.359 110.359 0 0134.3 23.5c9.4 9.5 17.5 21.4 19.4 34.9 2 13.8-3.8 28-14.1 37.2-19.3 17.2-49.6 12.4-71.4 3.5-11.4-4.7-22.5-11.2-31.4-19.8-12-11.6-19.3-27-29.5-40.1-19.3-24.9-48.7-35.1-77.6-44.4-29.8-9.7-60.6-21.5-80.2-47.4-9.6-12.8-15.4-28.2-14.6-44.3.8-15.8 7.7-31.1 18.2-42.9a76.398 76.398 0 0117.5-14.6c2.6-1.6.2-5.7-2.4-4.1-26.4 16.2-43.4 47.7-36.6 78.9 7 32.1 35.6 54.7 64.3 67.2 30.4 13.2 65.5 17.9 92.1 38.8 14.9 11.7 23.6 28.1 34.5 43.2a93.073 93.073 0 0029 26.5c21.7 12.7 51 21.1 75.6 12.2a47.628 47.628 0 0028-62.6c-10.2-25.2-36.2-45-61.6-53.1-8.7-2.8-17.8-3.6-26.6-6.1a53.543 53.543 0 01-23.2-14.1c-10.6-10.5-17.6-24-23.6-37.5-12.1-27.3-20.9-56.7-43.9-77.2-23-20.6-55.6-32.2-86.3-24.8a81.135 81.135 0 00-21.6 8.8c-2.7 1.3-.3 5.4 2.3 3.9z"/></g><path d="M442.398 362.947c52.64-32.722 27.663-112.55-23.237-140.687s-25.924-39.203-23.553-103.54C399.56 9.966 333.642 5.856 333.642 5.856s-61.965-3.478-61.965 112.865c0 64.337 27.505 75.244-23.553 103.54-50.9 28.295-75.876 108.123-23.237 140.687 63.388 39.36-70.818 58.962-47.897 169.457 15.491 74.927 97.058 73.505 156.653 74.927 17.329-.413 34.679-.606 51.956-2.14 7.947-.705 16.55-3.172 24.498-2.618 8.065.562 15.577 4.698 23.764 4.239 5.129-.288 9.976-2.434 14.425-5.003a42.974 42.974 0 008.53-6.21c4.605-4.468 7.6-10.244 10.01-16.117 1.052-2.564 1.687-5.175 3.593-7.216a67.397 67.397 0 005.217-5.76c7.481-10.072 12.122-21.872 14.659-34.102 22.92-110.495-111.285-130.096-47.897-169.457z" fill="#70cacd"/><path class="cls-5" d="M331.904 584.094c1.422-4.9 7.587-347.45 0-411.154-2.688-23.079-11.698 451.938 0 411.154z"/><path class="cls-5" d="M263.299 255.14s58.172 87.732 67.498 85.676 71.608-82.99 65.127-87.415c-2.055-1.423-66.234 78.247-66.234 78.247s-70.343-92.316-66.391-76.509z"/><path class="cls-5" d="M263.299 336.706s58.172 87.732 67.498 85.677 71.608-82.99 65.127-87.416c-2.055-1.422-66.234 78.248-66.234 78.248s-70.343-92.474-66.391-76.509zM263.299 439.771s58.172 87.732 67.498 85.677 71.608-82.99 65.127-87.416c-2.055-1.422-66.234 78.248-66.234 78.248s-70.343-92.316-66.391-76.509z"/><g class="cls-2"><path class="cls-3" d="M707.922 363.976c7.921-19.991 32.62-19.72 48.093-9.32 16.913 11.203 24.403 33.037 44.039 40.899 36.974 14.665 70.598-22.35 107.414-12.632 8.348 2.21 16.494 6.972 20.222 15.13 3.878 8.437 1.923 18.12-2.93 25.634-10.71 16.826-32.698 19.51-51.046 18.752-10.628-.509-21.142-1.87-31.766-2.238a147.286 147.286 0 00-28.936 2.199c-19.424 3.168-39.069 8.324-58.893 5.633-20.75-2.874-41.84-14.156-51.232-33.524-8.703-17.762-6.54-40.824 8.155-54.735 2.335-2.197-1.312-5.618-3.647-3.421-13.117 12.376-17.171 31.607-13.081 48.88 4.504 19.17 19.41 33.975 37.13 41.685 19.586 8.5 40.15 7.772 60.838 4.28 11.4-1.92 22.712-4.333 34.28-5.41s23.132-.103 34.694.871c19.935 1.697 43.029 2.657 59.434-10.885 13.03-10.675 19.468-30.549 8.466-44.983-11.076-14.502-32.218-16.373-48.73-12.803-21.851 4.73-42.314 17.483-65.285 15.953-14.107-.893-24.259-8.633-33.088-19.246-8.018-9.578-15.2-19.606-26.228-25.974-17.52-10.265-43.834-7.938-52.216 13.13-1.255 2.8 3.067 5.208 4.312 2.126z"/></g><path class="cls-1" d="M160.368 604.468c-43.096 10.91-86.113 20.334-129.22 30.922-5.297 1.301-10.94 2.805-14.54 6.903 5.676 9.421 46.384 9.163 56.869 10.756l66.244 10.065c25.89 3.933 51.788 7.868 77.818 10.723 57.915 6.351 116.215 7.335 174.348 10.446 29.815 1.595 59.621 3.725 89.255 7.44 27.184 3.407 54.84 13.05 82.265 12.062 21.073-.759 40.081-10.518 60.042-16.15 21.82-6.155 44.186-10.06 66.202-15.412 16.235-3.948 32.268-8.677 48.294-13.403 20.304-5.988 41.15-11.148 61.045-18.314 5.632-2.028 11.626-4.795 14.204-10.199a3.802 3.802 0 00.236-3.531c-.665-1.09-2.09-1.383-3.354-1.572l-17.284-2.585-11.85-1.773a442.154 442.154 0 00-51.98-4.892q-65.785-1.961-131.582-3.54-33.315-.8-66.632-1.5c-18.58-.385-37.657-4.476-56.385-6.225l-104.995-9.809z"/><path class="cls-6" d="M523.244 342.816c3.92-5.267 9.248-9.283 14.5-13.223 6.805-5.105 13.61-10.21 20.53-15.154 10.962-7.832 23.049-15.537 36.519-15.76 2.285-.037 4.85.28 6.288 2.057 1.388 1.714 1.236 4.157 1.125 6.36a65.546 65.546 0 008.146 34.973c2.364 4.246 5.286 8.48 5.52 13.334.33 6.9-4.788 12.717-9.577 17.696-9.634 10.013-19.448 20.145-31.455 27.14-4.777 2.783-9.965 5.068-15.465 5.642-5.226.545-10.476-.474-15.62-1.545-4.116-.856-8.279-1.768-12.022-3.682-7.112-3.637-12.105-10.724-14.24-18.422s-1.618-15.946.328-23.693a66.496 66.496 0 017.675-18.337"/><path d="M525.024 342.759a30.284 30.284 0 0028.96 39.225c15.835-.013 28.896-12.065 39.042-24.223 1.362-1.631 2.957-3.415 5.079-3.533 2.43-.135 4.346 1.96 5.787 3.922 18.422 25.099 22.584 57.772 23.463 88.894a544.545 544.545 0 01-8.57 112.763c-.941 5.17-2.006 10.457-4.77 14.927-4.893 7.91-14.104 11.839-22.739 15.297l-24.09 9.648a80.315 80.315 0 01-13.216 4.423c-5.594 1.175-11.366 1.142-17.077.92a265.748 265.748 0 01-29.616-2.82c-5.772-.878-11.766-2.055-16.367-5.65-5.121-4.001-7.73-10.394-9.465-16.657-4.03-14.566-4.483-29.883-3.934-44.986 1.516-41.697 10.426-82.722 16.058-124.064 1.75-12.844 3.2-25.811 6.996-38.206s10.156-24.357 20.151-32.61" fill="#188287"/><path d="M521.46 355.6c8.467 9.514 11.524 22.828 11.353 35.563s-3.235 25.223-5.579 37.74c-5.307 28.337-6.972 57.212-8.627 85.993l-3.1 53.944a271.397 271.397 0 01-7.308-33.188 537.596 537.596 0 01-4.455-142.435c1.018-9.962 2.322-19.93 4.916-29.602.887-3.306 2.165-6.884 5.156-8.549a7.013 7.013 0 018.45 1.496l.824-2.078" fill="#166666" opacity=".76"/><path class="cls-9" d="M401.992 555.998c6.437-8.474 11.635-17.806 17.318-26.802 6.904-10.927 14.535-21.374 22.16-31.811 2.187-2.994 3.848-5.692 7.126-7.425-.563-.072-.001-1.078.502-.816s.527.961.474 1.526c-.235 2.507-.631 4.996-1.027 7.482-3.037 19.071-6.259 38.112-9.455 57.156q-2.465 14.691-4.887 29.393c-.91 5.566-2.64 11.275-1.94 16.965a10.368 10.368 0 003.289 6.833c2.68 2.276 6.332 2.218 9.513 3.332 7.45 2.61 15.02 5.046 22.864 6.135 3.788.526 8.208.094 11.73 1.47a15.586 15.586 0 0011.753-.016 20.299 20.299 0 006.572-5.522c15.298-17.741 21.906-42.272 18.448-65.353-3.878-25.893-1.041-53.547-.012-79.805 1.04-26.556 2.716-53.106 4.435-79.674.595-9.196 1.383-18.385 2.646-27.516 1.095-7.92 1.68-17.93 5.173-25.182-12.902-3.074-28.809 3.335-39.677 9.86-11.923 7.159-22.013 16.972-31.538 27.106a325.856 325.856 0 00-29.336 35.448c-7.065 10.042-13.37 20.595-19.667 31.136l-11.249 18.831-26.046 43.6c6.422 20.9 17.322 38.141 30.578 55.528M590.974 341.262c-.46-.26-.91-.53-1.37-.79l-.47 1.06c-.71-.44.31-1.61 1.05-1.25a1.594 1.594 0 01.79.98z"/><path d="M417.446 601.528a377.25 377.25 0 0068.889 13.622c8.17.836 16.364 1.404 24.556 1.973l82.344 5.712c7.642.53 17.195 2.63 18.741 10.132-65.523 11.947-132.608 23.371-198.384 12.904-4.08-.65-8.265-1.426-11.758-3.634a16.087 16.087 0 018.773-29.684 14.642 14.642 0 001.024-2.503c.982-3.152 3.18-5.758 5.375-8.224a1.327 1.327 0 01.529-.419.458.458 0 01.576.218" fill="#78cded"/><path d="M649.665 605.714a511.855 511.855 0 01-64.818 12.99c-19.62 2.629-42.55 7.043-62.192 3.115-11.923-2.385-23.528-9.836-35.345-6.973-3.49.846-9.887 4.436-8.572 8.945 1.04 3.561 10.281 6.409 13.353 7.282 6.707 1.908 13.757 2.182 20.729 2.351 62.307 1.517 124.535-4.266 186.592-10.042 8.385-.78 16.828-1.571 24.923-3.89-1.861-3.775-6.731-4.7-10.917-5.138a858.37 858.37 0 00-124.723-3.926c-17.604.728-35.238 1.998-52.823.902-7.477-.467-14.936-1.36-22.428-1.398a98.6 98.6 0 00-36.996 7.025c-.833.333-1.829.98-1.613 1.852s1.86-.26.985-.46" fill="#1b616b" opacity=".16"/><path class="cls-6" d="M474.768 623c-3.522-3.676-3.912-9.577-2.033-14.308s5.646-8.464 9.668-11.584a67.534 67.534 0 0144.277-13.955 133.781 133.781 0 0115.41 1.962c6.436 1.075 13.894 2.915 16.452 8.916 2.804 6.578-2.627 14.282-9.357 16.699s-14.144 1.125-21.217.075c-3.08-.457-6.363-.836-9.191.465-3.316 1.525-5.22 4.968-7.651 7.69-4.973 5.564-12.632 8.29-20.095 8.252s-9.762-.548-16.263-4.212"/><path class="cls-9" d="M754.954 575.172c-1.07 15.92-9.03 32.03-23.02 39.7-12.6 6.9-27.85 6.18-42.17 5-45.54-3.75-91.2-10.21-136.74-6.42l-6.75.78s-5.83-29.67-5.17-34.83l.67-5.17 8.39-.52c.03-1.93.08-3.87.2-5.8.63-9.72.18-19.52.58-29.27q.615-14.67 2.22-29.27 1.605-14.55 4.18-28.98 2.58-14.445 6.08-28.69 3.51-14.325 7.9-28.41 2.73-8.79 5.77-17.47c3.837-10.933 7.762-21.737 10.775-32.918a61.87 61.87 0 0116.067-27.462c2.91 3.157 6.002 6.436 10.076 7.79a25.195 25.195 0 019.724 5.484c3.676 3.032 9.208 4.68 13.588 6.476 12.29 5.04 25.31 9 35.76 17.18 10.08 7.9 16.98 19.16 22.38 30.77 11 23.61 16.62 49.41 27.33 73.15 6.56 14.55 14.99 28.19 21.65 42.69s11.59 30.27 10.51 46.19z"/><path class="cls-12" d="M471.291 353.544c-4.904 6.586-4.162 16.457.946 22.886s13.856 9.411 22.015 8.486c11.406-1.293 21.29-9.677 26.114-20.094s5.045-22.537 2.466-33.723a4.206 4.206 0 00-.772-1.86 3.378 3.378 0 00-2.204-.98c-3.117-.368-6.092 1.232-8.823 2.778l-38.576 21.842a9.452 9.452 0 00-3.572 2.887c-.665 1.058-1.488 2.644-2.636 2.149M542.94 572.861c34.24 1.68 74.733-1.096 107.895-9.785 5.254-1.376 11.242-3.59 12.859-8.776 1.081-3.468-.209-7.187-1.548-10.564a285.644 285.644 0 00-37.549-66.757c9.173 20.79 16.916 40.591 26.09 61.381 1.223 2.775 2.475 5.753 1.964 8.742-.992 5.805-7.691 8.412-13.373 9.958-30.654 8.344-64.611 17.444-96.337 15.801"/><path class="cls-13" d="M535.55 312.502c.603 5.931.76 12.072-2.663 16.997a38.833 38.833 0 00-6.705 17.29 52.197 52.197 0 01-1.274 8.31c-2.152 7.127-8.866 11.823-15.49 15.224-9.002 4.624-19.176 7.548-28.707 3.04-8.086-3.824-15.119-10.393-14.097-20.226a11.89 11.89 0 011.608-5.109 17.558 17.558 0 014.16-4.16l13.55-10.798c8.364-6.665 17.092-13.815 20.894-23.81 3.062-8.05 3.864-21.868 15.723-19.166 10.524 2.397 12.068 13.21 13.002 22.408z"/><path class="cls-12" d="M600.374 333.938c8.263-2.893 17.269-2.557 26.003-1.952 11.654.808 23.52 2.097 34.154 6.936 15.939 7.253 27.321 21.586 38.073 35.409-.399-.583-1.936.034-2.334-.548-4.84 7.93-17.928 8.775-23.746 1.531-4.27 6.953-9.653 13.395-16.581 17.706s-15.548 6.306-23.425 4.18c-5.823-1.573-10.875-5.243-15.216-9.43a67.75 67.75 0 01-18.37-31.287c-1.62-6.139-2.29-12.974.677-18.587"/><path d="M529.94 335.232a13.29 13.29 0 01-2.198 3.445c5.402 6.538 12.774 12.181 21.243 12.621a27.258 27.258 0 008.13-.945c12.43-3.175 22.56-11.962 31.9-20.757 3.8-3.578 7.606-7.27 10.222-11.788a28.552 28.552 0 002.427-22.773 2.889 2.889 0 00-.838-1.46 2.971 2.971 0 00-2.506-.185 57.26 57.26 0 00-12.143 4.556 171.478 171.478 0 00-19.219 11.706c-8.856 5.944-17.713 11.909-26.107 18.49-2.841 2.227-5.695 4.563-9.08 5.82-.995.369-2.144.742-2.573 1.712l.407-1.61" fill="#8ab9ce"/><path class="cls-6" d="M516.979 222.188l-7.512 7.235a10.474 10.474 0 00-4.27 8.53c-1.216 12.739-2.03 25.635-4.422 38.114-2.133 11.135 1.257 22.766 7.631 31.94 1.912 2.753 4.134 5.273 6.217 7.897 7.64 9.62 13.775 25.687 27.409 28.124 8.294 1.482 16.208-3.831 22.455-9.485 4.563-4.13 8.816-8.586 13.064-13.039l14.501-15.199c3.804-3.987 6.748-4.578 11.783-5.659 4.141-.889 7.279-5.419 9.38-8.903 2.754-4.566 4.983-9.596 5.348-14.916s-1.37-10.98-5.439-14.428a3.188 3.188 0 00-3.7-.78 17.793 17.793 0 00-6.968 4.546c-1.968 2.002-3.09 4.179-5.799 5.374a2.66 2.66 0 01-1.64.29 2.07 2.07 0 01-.983-.599c-1.648-1.683-.46-3.766-.148-5.71a35.01 35.01 0 00.497-7.352c-.488-9.485-5.762-18.371-5.427-27.863.12-3.4.954-6.894-.053-10.145a16.834 16.834 0 00-3.424-5.587c-1.34-1.611-2.788-3.5-4.638-4.522-1.513-.836-2.392-.69-3.735-2.215-2.05-2.329-5.329-3.067-8.393-3.557-2.86-.456-5.827-.803-8.618-.031-6.857 1.895-10.873 8.984-17.51 11.574-8.328 3.25-19.05 3.172-27.85 2.45a12.424 12.424 0 00-4.915.207c-4.492 1.484-4.663 9.194-.241 10.875"/><path class="cls-13" d="M668.453 312.574c-5.18-7.01-5.586-16.491-4.246-25.104s4.203-16.985 4.832-25.679c.336-4.644-.055-9.581-2.643-13.452-3.204-4.791-9.005-6.954-14.13-9.59a122.582 122.582 0 01-15.44-10.017 44.414 44.414 0 01-8.526-7.333c-10.713-12.958-4.742-34.806-16.494-46.83-4.272-4.371-10.262-6.632-16.225-7.977-8.33-1.879-18.27-2.768-26.53-.087-7.95 2.58-13.42 6.993-20.291 11.482-12.355 8.071-29.81 7.096-40.179 17.596-7.897 7.998-9.213 20.401-8.2 31.595 1.04 11.489 3.09 22.749 2.694 34.329 1.259-5.48 2.292-11.024 3.43-16.532 1.37-6.642 3.16-13.94 8.74-17.796 8.035-5.554 17.534-4.084 26.134-7.6 4.555-1.863 8.188-5.476 12.621-7.613 10.472-5.045 22.72 7.079 25.007 16.938.966 4.163.724 8.686 2.709 12.471 2.229 4.252 6.982 6.677 8.973 11.05 2.192 4.817 2.044 10.951 1.76 16.121-.239 4.352-1.194 9.235-.178 13.504 2.23-4.591 5.43-8.47 10.105-10.744 2.115-1.029 4.722-1.667 6.75-.477 2.65 1.553 2.89 5.353 2.002 8.292-2.56 8.472-11.048 13.572-16.066 20.862-5.685 8.26-6.595 19.079-4.627 28.91s6.536 18.924 11.135 27.834c4.826 9.351 10.176 19.126 19.234 24.483 5.467 3.234 11.851 4.563 18.167 5.234a46.006 46.006 0 0015.37-.494c5.014-1.179 9.827-3.784 12.906-7.913a49.293 49.293 0 0111.523 9.893c2.674 3.038 4.487 7.527 8.516 8.098 2.933.416 9.164-2.446 12.076-3.338 8.26-2.532 16.507-6.332 21.756-13.483 7.946-10.827 6.342-26.803-1.665-37.585s-21.206-16.792-34.497-18.715c-6.982-1.009-12.305-4.654-16.503-10.333z"/><path d="M148.323 444.072a53.006 53.006 0 00-6.731 1.994c-8.59 3.203-16.496 9.398-19.645 18.006a37.023 37.023 0 00-1.903 11.61c-.84 27.234 12.53 58.75 23.407 83.332 10.692 24.164 23.065 55.192 49.733 64.404 15.8 5.459 32.58 7.313 49.198 9.13 12.558 1.375 24.998 1.297 37.612 2.531 13.282 1.3 26.499 3.178 39.708 5.062 26.31 3.753 52.784 7.622 79.433 6.998 4.228-.1 8.519-.19 12.726-.657 9.681-.788 21.076-3.624 24.357-12.767 1.526-4.255.845-8.953.01-13.396-9.044-48.127-33.579-91.718-57.74-134.312-4.996-8.808-10.145-17.805-17.843-24.383-10.974-9.378-27.356-13.868-41.623-14.266-15.553-.435-30.997-2.144-46.673-3.486a790.05 790.05 0 00-103.704-2.045c-6.81.314-13.703.734-20.322 2.245z" fill="#7aadd7"/><path class="cls-12" d="M453.707 487.72c7.012-15.859 14.066-31.84 17.916-48.747a644.112 644.112 0 00-57.427 94.368c-1.704 3.433-3.257 7.93-.668 10.758a373.58 373.58 0 0139.424-56.114 1.02 1.02 0 11-1.266 1.016"/></svg>