<?xml version="1.0" encoding="UTF-8"?>
<svg width="1639px" height="589px" viewBox="0 0 1639 589" version="1.1" xmlns="http://www.w3.org/2000/svg" xmlns:xlink="http://www.w3.org/1999/xlink">
    <!-- Generator: Sketch 50.2 (55047) - http://www.bohemiancoding.com/sketch -->
    <title>background</title>
    <desc>Created with Sketch.</desc>
    <defs>
        <polygon id="path-1" points="0.255928392 0.0767733333 168.279411 0.0767733333 168.279411 167.622222 0.255928392 167.622222"></polygon>
        <polygon id="path-3" points="0 0.210053951 107.16615 0.210053951 107.16615 34.7792059 0 34.7792059"></polygon>
        <polygon id="path-5" points="0.945867782 0.720257778 74.7286901 0.720257778 74.7286901 105.112207 0.945867782 105.112207"></polygon>
        <polygon id="path-7" points="0.176961485 0.156985343 138.826902 0.156985343 138.826902 233.41844 0.176961485 233.41844"></polygon>
        <polygon id="path-9" points="0 0.342465068 26.2687876 0.342465068 26.2687876 113.919403 0 113.919403"></polygon>
        <polygon id="path-11" points="0.642065934 0.0375581395 12.1964073 0.0375581395 12.1964073 10.2719535 0.642065934 10.2719535"></polygon>
        <polygon id="path-13" points="0.0401320673 0.122932023 18.8439927 0.122932023 18.8439927 29.7496987 0.0401320673 29.7496987"></polygon>
    </defs>
    <g id="Page-1" stroke="none" stroke-width="1" fill="none" fill-rule="evenodd">
        <g id="background">
            <rect id="Rectangle-10" fill="#F8FAFB" x="0" y="0" width="1639" height="589"></rect>
            <g id="fondo" transform="translate(30.000000, 25.000000)">
                <g id="Group-21">
                    <g id="Group-15">
                        <path d="M1319.08037,200.038915 C1318.07096,235.533606 1326.57025,258.42735 1344.57823,268.720148 C1371.5902,284.159344 1430.17963,292.879509 1444.24388,292.975589 C1458.30812,293.07167 1524.50782,292.266579 1554.84617,251.21687 C1585.18453,210.167161 1580.31091,118.294002 1576.82881,118.005759 C1575.94451,117.932559 1563.66016,74.2539063 1526.38281,52.4335937 C1397.37849,-23.0791544 1341.01495,128.989072 1340.2314,130.917036 C1339.53123,132.639865 1332.48088,155.680491 1319.08037,200.038915 Z" id="Path-2" fill="#E3E9ED"></path>
                        <path d="M266.060646,195.769246 C284.123843,207.939486 292.334889,217.123488 290.693784,223.321254 C288.232127,232.617904 265.285373,260.703326 251.916884,269.244581 C238.548395,277.785836 222.721562,294.265356 204.877031,291.893154 C187.032501,289.520951 161.776493,255.839648 157.134795,258.364255 C152.493097,260.888862 162.180695,273.32636 152.493097,282.609757 C142.805498,291.893154 130.434262,301.368712 109.604599,299.476914 C88.7749361,297.585115 60.8584833,280.502605 53.864461,274.873593 C49.2017795,271.120919 46.8704388,253.936806 46.8704388,223.321254 L266.060646,195.769246 Z" id="Path-6" fill="#E3E9ED"></path>
                        <path d="M1082.5195,167.213678 C1082.5195,167.213678 1078.67967,169.113831 1071,172.914136 C1083.49435,174.814289 1092.35487,174.814289 1097.58154,172.914136 C1105.42155,170.063907 1237.71961,113.955398 1242.94907,109.3957 C1248.17852,104.836001 1246.71708,101.418733 1248.17852,99.8387055 C1249.63997,98.2586781 1251.10141,98.928436 1249.63997,94.2067263 C1248.17852,89.4850166 1082.5195,167.213678 1082.5195,167.213678 Z" id="Path-7" fill="#E3E9ED"></path>
                        <g id="planta" transform="translate(1251.000000, 0.000000)">
                            <g id="Group-3" transform="translate(37.150628, 102.607335)">
                                <mask id="mask-2" fill="white">
                                    <use xlink:href="#path-1"></use>
                                </mask>
                                <g id="Clip-2"></g>
                                <path d="M168.279411,145.735058 C166.4767,153.739796 122.968214,164.748418 96.6360971,167.159716 C70.3039799,169.571013 50.1921808,163.054969 26.3761473,136.244036 C2.56011381,109.433102 -4.61699079,54.6501511 3.40603849,33.8108533 C11.4266577,12.9715556 120.926909,0.0767733333 120.926909,0.0767733333 L164.329352,53.4047556 L168.279411,145.735058 Z" id="Fill-1" fill="#FCD250" mask="url(#mask-2)"></path>
                            </g>
                            <path d="M190.054454,34.0618495 C169.593198,23.5494584 108.431156,6.15005393 56.738169,67.4707295 C14.8444117,117.166107 33.1776,201.747014 104.088261,245.005841 C174.998922,288.262258 251.896127,234.780107 270.658303,199.930712 C289.422889,165.081316 277.623324,109.081876 253.7856,80.8063384 C229.400797,51.8804006 204.787039,41.6329873 190.054454,34.0618495" id="Fill-4" fill="#FFEEB6"></path>
                            <path d="M229.401038,237.643553 C178.997423,259.653571 124.038828,255.999287 85.0829121,223.182993 C46.1269958,190.3667 33.3658243,136.075162 37.4074644,114.219313" id="Stroke-6" stroke="#F8FAFB" stroke-width="1.27" stroke-linecap="round" stroke-linejoin="round"></path>
                            <path d="M99.1435782,37.2753073 C147.233553,7.20755615 226.53839,43.7768984 255.239578,86.8285606 C283.935946,129.882632 293.417051,202.045716 225.615344,232.783138 C157.811227,263.520561 99.5074946,240.176018 63.8147749,183.025129 C28.1196452,125.871832 36.8849674,76.2053606 99.1435782,37.2753073" id="Fill-8" fill="#00AF80"></path>
                            <path d="M179.769359,205.397685 C202.223719,209.907125 224.333443,233.988787 228.488355,247.170227 C233.286748,232.625356 218.484271,195.644094 200.327016,191.247872 C182.169761,186.854058 163.557008,198.987632 179.769359,205.397685" id="Fill-10" fill="#4AD295"></path>
                            <path d="M115.557168,73.5649775 C119.663879,56.8906486 108.75603,34.398853 94.1535866,28.4392619 C109.635695,20.8079019 126.363796,30.8240619 132.92393,38.1808086 C139.484064,45.5351464 150.751009,65.3458486 147.073285,74.8175997 C143.395562,84.284533 114.123193,92.5807464 115.557168,73.5649775" id="Fill-12" fill="#4AD295"></path>
                            <path d="M161.87287,58.9105019 C173.583264,30.4470708 214.570845,18.4556219 214.570845,18.4556219 C214.570845,18.4556219 228.199632,40.2030708 215.286628,55.330893 C202.378444,70.4587153 161.87287,58.9105019 161.87287,58.9105019" id="Fill-14" fill="#69E781"></path>
                            <polyline id="Fill-16" fill="#4AD295" points="161.87287 198.169814 99.6263096 145.340472 184.030795 70.8383561 234.887498 117.481672 188.91354 184.593316 159.944837 199.930712"></polyline>
                            <path d="M85.0833941,213.111188 C88.6888167,193.979793 107.132867,176.736966 120.147093,174.571375 C133.161319,172.408193 135.060432,190.75429 131.026022,193.840077 C126.996432,196.928273 123.530792,195.678059 113.685771,198.16885 C103.84075,200.66205 88.5755448,208.847455 85.0833941,215.657384" id="Fill-18" fill="#69E781"></path>
                            <path d="M127.273346,180.135908 C129.24476,170.815917 151.393044,168.484113 156.808408,194.596468 C149.301128,195.844273 133.324961,203.229926 127.273346,196.82469 C121.224141,190.417046 127.273346,180.135908 127.273346,180.135908" id="Fill-20" fill="#69E781"></path>
                            <path d="M106.510112,153.518168 C77.5462293,139.187688 31.1963046,163.719812 18.2736603,174.396008 C26.4798527,151.877714 69.52561,115.132523 92.7005724,131.170905 C115.875535,147.206879 106.510112,153.518168 106.510112,153.518168" id="Fill-22" fill="#4AD295"></path>
                            <path d="M95.9497908,184.004584 C80.3134393,172.709304 54.8200167,164.581713 40.5573891,170.594299 C48.1875816,157.639295 65.2530879,154.606504 92.6986444,164.588939 C120.146611,174.571375 95.9497908,184.004584 95.9497908,184.004584" id="Fill-24" fill="#4AD295"></path>
                            <g id="Group-28" transform="translate(0.000000, 134.922890)">
                                <mask id="mask-4" fill="white">
                                    <use xlink:href="#path-3"></use>
                                </mask>
                                <g id="Clip-27"></g>
                                <path d="M85.0833941,31.9089653 C54.1505071,11.1708409 15.3753439,11.9320498 -0.000723012552,15.894672 C18.9397958,6.48796089 74.2574862,-3.97625244 87.9368837,1.92793422 C101.613871,7.829712 124.706892,45.2975698 85.0833941,31.9089653" id="Fill-26" fill="#69E781" mask="url(#mask-4)"></path>
                            </g>
                            <path d="M98.6562678,119.879721 C74.8739749,98.6501828 60.2040502,73.7952673 72.2181088,25.7523873 C77.4406695,54.5289739 79.8507113,85.6686806 123.821925,95.1669295 C167.795548,104.665178 136.739749,148.637036 98.6562678,119.879721" id="Fill-29" fill="#4AD295"></path>
                            <path d="M79.2889305,74.1378113 C83.5691649,84.9585401 102.666336,107.358798 109.853081,109.090789" id="Stroke-31" stroke="#2BC48A" stroke-width="1.27" stroke-linecap="round" stroke-linejoin="round"></path>
                            <path d="M82.9934059,135.598684 C60.8354812,105.333404 26.1381088,99.5135286 14.0710293,103.7604 C2.00635983,108.004862 46.4788619,66.940533 104.719933,110.705226 C162.961004,154.472329 106.488904,162.522835 82.9934059,135.598684" id="Fill-33" fill="#4AD295"></path>
                            <path d="M123.135786,108.596244 C100.816388,86.2947508 99.3800033,50.4143508 102.836003,30.4326175 C113.645041,58.084253 127.746196,78.4104575 153.119116,90.8692308 C178.494447,103.328004 158.030782,158.631275 123.135786,108.596244" id="Fill-35" fill="#69E781"></path>
                            <path d="M147.073767,74.8166361 C122.165985,65.8965206 82.0677088,71.0370895 75.7654494,99.8835339 C93.5925289,88.4075873 125.981081,94.6610628 136.26232,101.466174 C146.538738,108.273694 174.704897,86.6177828 147.073767,74.8166361" id="Fill-37" fill="#69E781"></path>
                            <g id="Group-41" transform="translate(107.041841, 0.434001)">
                                <mask id="mask-6" fill="white">
                                    <use xlink:href="#path-5"></use>
                                </mask>
                                <g id="Clip-40"></g>
                                <path d="M49.7660854,90.4354702 C54.7380017,72.1038258 24.7016502,10.8000124 0.945867782,0.718812444 C45.3798092,1.99793244 70.3020519,47.622288 73.8592736,58.4767413 C77.4140854,69.3287858 70.2008301,133.436546 49.7660854,90.4354702" id="Fill-39" fill="#69E781" mask="url(#mask-6)"></path>
                            </g>
                            <path d="M175.302346,53.1188104 C147.136187,50.9917615 121.086045,71.6166681 142.547468,119.878757 C142.614949,92.8606593 161.295183,66.1075393 173.79366,64.3394148 C186.292137,62.5688815 175.302346,53.1188104 175.302346,53.1188104" id="Fill-42" fill="#8DF690"></path>
                            <path d="M122.420244,208.314609 C143.553901,215.483462 157.912931,255.885346 159.231223,265.978591 C160.549516,276.071835 177.207726,221.25516 155.958387,205.621471 C134.706638,189.987782 112.454721,189.207302 122.420244,208.314609" id="Fill-44" fill="#4AD295"></path>
                            <path d="M142.138243,268.641617 C142.685322,246.918257 166.684519,203.837689 185.7359,204.777155 C189.081038,204.943369 192.433406,204.386915 195.385707,202.801866 C221.418979,188.823084 190.117356,175.658506 177.153741,177.995129 C163.339381,180.48592 134.580351,201.859991 142.138243,268.641617" id="Fill-46" fill="#69E781"></path>
                            <path d="M161.87287,127.926132 C137.714611,131.170905 97.6018745,114.031661 81.5582259,99.8818477 C114.983096,148.098168 138.570176,156.208897 155.746544,150.815394 C172.922912,145.424301 173.192837,127.726194 161.87287,127.926132" id="Fill-48" fill="#69E781"></path>
                            <path d="M163.595568,116.455726 C171.582447,74.5964637 235.593158,51.9215926 256.401459,55.2410415 C222.005342,36.8106326 180.98402,46.0872637 165.586263,63.4601704 C150.190915,80.833077 129.760991,114.658695 163.595568,116.455726" id="Fill-50" fill="#4AD295"></path>
                            <path d="M200.824208,71.6595464 C224.184743,64.0667286 248.673178,43.439413 241.105647,28.9499464 C254.481379,42.5240353 254.582601,84.7109064 240.045228,90.3452975 C225.510266,95.9796886 193.422969,103.709813 184.064777,95.167893 C174.704174,86.6235641 185.939789,74.9597241 200.824208,71.6595464" id="Fill-52" fill="#69E781"></path>
                            <path d="M198.776636,103.279826 C217.934059,83.9509019 258.490243,103.865186 299.046427,90.344093 C280.686728,106.457151 252.696502,129.259693 220.163347,127.766182 C187.627782,126.270262 191.652552,111.026813 198.776636,103.279826" id="Fill-54" fill="#4AD295"></path>
                            <path d="M215.286869,136.333877 C253.628224,136.259201 287.000074,150.647495 292.355187,160.063841 C285.231103,135.625664 267.828191,116.530401 249.786618,114.940535 C231.749864,113.350668 194.929245,129.131299 215.286869,136.333877" id="Fill-56" fill="#69E781"></path>
                            <path d="M215.286869,145.173054 C232.215003,137.221312 247.364526,144.060147 254.488609,190.623969 C264.070936,163.519152 258.479638,129.081676 241.105647,119.879721 C223.729245,110.680174 214.906082,126.304227 215.286869,145.173054" id="Fill-58" fill="#4AD295"></path>
                            <path d="M213.841808,174.725544 C244.750594,172.427464 279.513038,177.83301 289.765356,188.494753 C280.710828,167.930068 254.988452,143.653286 232.876318,140.842113 C210.764184,138.02853 181.308653,174.424433 213.841808,174.725544" id="Fill-60" fill="#69E781"></path>
                            <path d="M187.307729,155.148504 C200.109871,120.92301 225.909369,105.722921 243.312281,104.860539 C226.846875,119.588486 211.403327,160.94429 209.321051,173.675268 C207.238775,186.408655 167.376683,184.026264 187.307729,155.148504" id="Fill-62" fill="#8DF690"></path>
                            <path d="M171.449413,99.8828113 C182.280141,78.6050957 208.576107,70.1354424 227.73835,74.8159135 C213.92399,86.1786424 202.876358,108.740296 193.024107,121.068989 C183.171856,133.397682 150.065111,125.388127 171.449413,99.8828113" id="Fill-64" fill="#4AD295"></path>
                            <path d="M160.698457,184.086968 C161.913118,131.606914 194.253469,79.5146921 220.163829,77.6261233 C205.455344,94.1968699 187.748767,162.074541 189.469536,175.354745 C191.192716,188.63495 154.266055,204.928674 160.698457,184.086968" id="Fill-66" fill="#69E781"></path>
                            <path d="M170.477443,127.238153 C171.566782,105.047469 191.186932,52.7818068 202.5551,42.7536024 C169.356773,58.5607313 141.819635,96.0309979 145.335886,126.07466 C148.854547,156.115913 169.371233,142.907976 170.477443,127.238153" id="Fill-68" fill="#69E781"></path>
                            <path d="M115.557168,171.760201 C98.0602644,145.081757 69.9230259,116.538833 61.9481975,114.773117 C71.7522477,111.126059 102.444131,125.690201 123.823612,152.742024 C141.279545,174.824308 121.953419,181.516201 115.557168,171.760201" id="Fill-70" fill="#69E781"></path>
                            <path d="M147.419608,164.589903 C131.474772,144.533494 106.448897,148.368445 85.0838762,153.518649 C111.418403,161.460756 115.573315,179.643049 120.147575,185.580961 C124.721834,191.518872 173.170905,188.654703 147.419608,164.589903" id="Fill-72" fill="#69E781"></path>
                            <path d="M120.146611,185.58072 C87.7966192,186.406969 59.6642008,211.603946 59.0255397,212.815617 C73.9822594,176.607609 101.420586,161.289484 115.557891,163.826044 C129.690377,166.360195 135.590159,183.424764 120.146611,185.58072" id="Fill-74" fill="#8DF690"></path>
                            <path d="M137.268753,169.297113 C133.256033,148.542126 112.189858,126.409255 98.6574728,119.878757 C123.374862,121.261459 154.712636,155.771201 160.69918,177.325939 C166.680904,198.880677 137.268753,169.297113 137.268753,169.297113" id="Fill-76" fill="#8DF690"></path>
                            <path d="M146.023953,153.518168 C152.282832,124.250168 214.155836,89.9524077 238.629811,94.3438121 C214.36792,103.10735 161.453041,172.117199 160.698698,180.13639 C159.939535,188.153172 130.85274,173.878097 146.023953,153.518168" id="Fill-78" fill="#8DF690"></path>
                            <path d="M144.877737,181.169803 C115.901804,185.831003 105.533804,210.974985 105.801319,232.546585 C112.7567,216.698505 149.485737,200.662532 161.873352,202.44511 C174.258557,204.225279 166.387361,177.520337 144.877737,181.169803" id="Fill-80" fill="#8DF690"></path>
                            <path d="M147.51842,207.427656 C171.13924,210.462856 197.871424,233.988065 202.554136,247.171913 C201.891374,221.599149 182.741182,189.136962 170.476479,185.099665 C158.214186,181.062367 126.126889,194.590687 147.51842,207.427656" id="Fill-82" fill="#8DF690"></path>
                            <path d="M179.581135,191.95464 C222.836566,192.643582 234.113151,198.029857 249.421737,241.888497 C256.709704,201.108417 238.448817,173.121946 205.684298,169.296631 C172.922189,165.471315 159.483796,190.964586 179.581135,191.95464" id="Fill-84" fill="#8DF690"></path>
                            <path d="M91.1533255,180.826537 C101.735819,174.561017 119.779803,164.38587 128.554765,173.674545" id="Stroke-86" stroke="#69E781" stroke-width="1.27" stroke-linecap="round" stroke-linejoin="round"></path>
                            <path d="M193.834122,117.164903 C173.158373,134.277649 158.317336,152.705649 156.808649,160.064805" id="Stroke-88" stroke="#69E781" stroke-width="1.27" stroke-linecap="round" stroke-linejoin="round"></path>
                            <path d="M143.326875,177.724851 C142.548432,170.3127 143.252164,154.830771 136.776382,149.398727" id="Stroke-90" stroke="#69E781" stroke-width="1.27" stroke-linecap="round" stroke-linejoin="round"></path>
                            <path d="M160.698457,184.086968 C146.628633,183.737679 124.094741,197.075697 117.322524,211.382088" id="Stroke-92" stroke="#69E781" stroke-width="1.27" stroke-linecap="round" stroke-linejoin="round"></path>
                            <path d="M167.756746,181.801655 C182.094085,172.187779 217.555441,172.496117 234.886052,193.93041" id="Stroke-94" stroke="#69E781" stroke-width="1.27" stroke-linecap="round" stroke-linejoin="round"></path>
                            <path d="M71.1574494,145.173054 C88.9821188,146.514805 112.959625,160.064805 112.959625,160.064805" id="Stroke-96" stroke="#4AD295" stroke-width="1.27" stroke-linecap="round" stroke-linejoin="round"></path>
                            <path d="M112.958902,70.838597 C119.591337,86.3446148 137.469028,106.38657 141.64804,109.089344" id="Stroke-98" stroke="#4AD295" stroke-width="1.27" stroke-linecap="round" stroke-linejoin="round"></path>
                            <path d="M153.920214,128.341425 C154.537185,114.899825 159.894708,101.896642 166.683796,90.3460201" id="Stroke-100" stroke="#69E781" stroke-width="1.27" stroke-linecap="round" stroke-linejoin="round"></path>
                            <path d="M210.570417,133.704816 C202.236492,140.904985 196.064375,152.619411 196.064375,152.619411" id="Stroke-102" stroke="#69E781" stroke-width="1.27" stroke-linecap="round" stroke-linejoin="round"></path>
                            <path d="M256.401218,161.812936 C244.069034,153.654029 220.845871,155.691949 220.845871,155.691949" id="Stroke-104" stroke="#4AD295" stroke-width="1.27" stroke-linecap="round" stroke-linejoin="round"></path>
                            <path d="M240.142835,66.4276806 C236.41691,75.6368628 224.612526,77.6241961 224.612526,77.6241961" id="Stroke-106" stroke="#2BC48A" stroke-width="1.27" stroke-linecap="round" stroke-linejoin="round"></path>
                            <path d="M186.93128,218.740521 C181.831632,207.194716 173.160301,199.929507 173.160301,199.929507" id="Stroke-108" stroke="#69E781" stroke-width="1.27" stroke-linecap="round" stroke-linejoin="round"></path>
                            <path d="M59.0248167,100.160556 C65.0017205,99.6041028 75.7649674,105.546832 75.7649674,105.546832" id="Stroke-110" stroke="#2BC48A" stroke-width="1.27" stroke-linecap="round" stroke-linejoin="round"></path>
                            <path d="M147.793888,26.2741526 C156.320616,33.8236104 158.88008,42.7533615 158.88008,42.7533615" id="Stroke-112" stroke="#4AD295" stroke-width="1.27" stroke-linecap="round" stroke-linejoin="round"></path>
                            <path d="M193.834122,60.4748344 C201.21608,54.7296344 212.528817,55.0331544 212.528817,55.0331544" id="Stroke-114" stroke="#2BC48A" stroke-width="1.27" stroke-linecap="round" stroke-linejoin="round"></path>
                        </g>
                        <g id="ordenador" transform="translate(167.230754, 178.230754) rotate(-135.000000) translate(-167.230754, -178.230754) translate(52.230754, 56.730754)">
                            <g id="Group-3" transform="translate(60.617021, 8.538843)">
                                <mask id="mask-8" fill="white">
                                    <use xlink:href="#path-7"></use>
                                </mask>
                                <g id="Clip-2"></g>
                                <path d="M38.1025489,0.156985343 C19.1867617,6.79339196 -4.48172766,24.0495748 0.973804255,47.7865519 C4.46337872,62.9663786 25.5974213,51.6799105 27.1701872,64.9939152 C28.7445915,78.3063943 16.922634,115.175829 16.922634,115.175829 C16.922634,115.175829 10.1204213,194.118555 22.9073362,195.862328 C35.6942511,197.604576 42.2638255,213.34125 43.6514638,221.472755 C45.0358255,229.605786 60.1491234,232.898054 71.0634638,233.198599 C81.9778043,233.499145 99.8598255,234.416037 117.337187,227.877269 C125.202655,224.934366 129.450762,223.910681 137.394868,212.996462 C145.342251,202.082243 117.618974,29.9536883 117.618974,29.9536883 L38.1025489,0.156985343 Z" id="Fill-1" fill="#1273EB" mask="url(#mask-8)"></path>
                            </g>
                            <path d="M130.589543,188.719419 C155.408117,192.817209 143.052074,215.742561 151.449989,221.726007 C159.847904,227.710977 186.478436,230.092456 198.012053,221.535305 C209.54567,212.978155 212.0965,192.002533 204.139287,167.370022 L201.789968,96.5923644 C201.789968,96.5923644 201.86533,96.0980665 201.980011,95.2650831 C194.989394,87.0557718 193.333074,76.6389018 193.588649,66.4462966 C193.716436,61.4056788 194.268543,56.3879452 194.745287,51.3702115 C195.167968,46.9306843 194.653543,39.7984542 199.094968,36.9104731 C199.596287,36.5839924 199.635606,35.8883139 199.927223,35.3879136 C201.087138,33.4015685 200.217202,28.5180886 200.222117,26.1961091 C200.231947,21.1280303 200.205734,16.0401185 199.868245,10.9842446 C198.891819,-3.57160725 138.448457,-2.96136296 98.719734,8.69582853 C76.2701383,15.28189 79.6696064,43.7833494 94.2307979,58.0661169 C104.421011,68.0619184 138.215819,45.2799735 143.002926,54.7082478 C147.788394,64.1334708 143.002926,54.7082478 125.247053,69.4059814 C107.491181,84.1067663 102.589394,175.774612 102.589394,175.774612 C102.589394,175.774612 105.770968,184.621628 130.589543,188.719419" id="Fill-4" fill="#2C8CF4"></path>
                            <path d="M166.21777,75.3756961 C170.524855,76.6526323 175.375855,76.5199042 180.005685,74.3703187 C187.502536,70.8919262 191.855494,62.372916 190.027153,54.7616441 C185.967451,37.8533006 160.518132,36.8738585 153.948557,52.6624038 C149.752877,62.737537 156.641919,72.5380602 166.21777,75.3756961" id="Fill-6" fill="#1273EB"></path>
                            <path d="M113.043536,88.6898534 C105.086323,85.1275524 25.4765149,86.9354011 14.4524085,91.2971221 C29.5476851,102.234225 27.4490255,155.355991 23.0911532,175.175199 C18.7332809,194.994408 13.3465574,206.158827 7.64200426,204.283852 C23.5466,212.332974 96.4180894,204.492861 100.779238,200.922931 C120.673089,184.637037 119.672089,169.348892 119.672089,169.348892 L113.043536,88.6898534 Z" id="Fill-8" fill="#2C8CF4"></path>
                            <path d="M98.8860213,186.758704 C88.0454043,188.340762 77.2801489,190.044869 66.3363191,190.891583 C53.4232553,191.892384 40.4888936,192.63078 27.5463404,193.190679 C24.2943191,193.331035 21.0406596,193.469865 17.7837234,193.605645 C14.6431064,201.53882 11.2043191,205.455063 7.64265957,204.283394 C23.545617,212.332516 96.4171064,204.492403 100.778255,200.922474 C107.726277,195.234997 112.120191,189.671095 114.90366,184.834909 C109.528404,185.260554 104.17117,185.98827 98.8860213,186.758704" id="Fill-10" fill="#1273EB"></path>
                            <path d="M211.882211,92.1581768 C222.632721,90.2908293 230.298317,96.7289065 229.402168,108.105386 C228.315977,121.890804 227.801551,134.692204 229.215402,145.967992 C230.22787,154.044576 232.146317,164.932859 219.762423,166.467624 C212.349126,167.386041 199.837445,165.218148 199.837445,165.218148 L195.228913,120.54369 L211.882211,92.1581768 Z" id="Fill-12" fill="#2C8CF4"></path>
                            <path d="M83.8277702,118.473436 C79.6763234,131.92322 84.2029404,147.649215 90.7626851,159.843422 C95.1451319,167.985606 103.754387,172.29088 110.155217,178.216352 C116.447919,179.621439 123.487685,179.818243 131.117238,178.796084 C148.648664,176.442067 166.489728,179.369713 183.94743,176.88907 C189.383302,176.117111 194.539026,174.095677 199.218004,171.445691 C203.308834,169.129814 208.872494,166.029773 211.103855,161.935034 C212.271962,159.791551 213.046877,157.46652 213.672706,155.14149 C215.235643,149.325862 215.864749,143.292071 216.236643,137.320831 C216.860834,127.334183 216.885409,117.121745 215.809047,107.15493 C215.786111,106.938293 215.833621,106.300588 215.686174,106.12972 C213.038685,87.0336504 215.242196,83.5705141 141.633472,86.6446197 C128.830174,87.1801091 118.558047,87.9596961 110.256791,89.045931 C102.232409,94.0453573 94.986217,100.227132 89.2570894,107.518026 C86.8897489,110.531107 85.3284511,113.994243 83.9129617,117.522981 C83.9490043,117.815898 83.930983,118.131699 83.8277702,118.473436" id="Fill-14" fill="#5EB2FC"></path>
                            <path d="M181.508004,152.098049 C184.907472,152.473349 209.662153,147.036072 212.886323,146.059682 C216.42177,144.991754 192.49443,144.372356 190.838111,142.062582 C189.971451,140.117428 187.784323,138.532318 185.349813,138.739801 C184.925494,138.776416 184.542132,138.77489 184.17843,138.752006 C182.857962,137.041797 182.210834,133.72817 182.189536,132.550399 C182.158409,130.852394 182.351728,129.152864 182.281281,127.456385 C182.135472,123.92307 181.63743,121.840612 182.766217,118.761929 C185.978919,109.998821 197.076749,114.569551 204.765281,114.531411 C208.330217,114.513103 211.341409,110.018654 207.574962,107.804993 C200.792409,103.818572 190.861047,102.92609 183.074217,104.720208 C172.970834,107.04829 170.537962,118.130326 170.279111,126.443379 C170.090706,132.487849 172.231962,151.072838 181.508004,152.098049" id="Fill-16" fill="#1273EB"></path>
                            <path d="M131.117566,178.795474 C131.858077,178.696309 132.595311,178.609349 133.334183,178.525441 C130.84397,177.689406 128.438949,176.806077 126.164991,175.889185 C109.829523,169.300072 96.6428638,157.981567 91.9933745,141.584303 C84.6570766,115.706894 102.291715,97.3980394 125.091906,87.5807344 C83.3431617,91.3337368 76.2116511,109.882112 76.678566,135.41931 C77.2929277,169.083436 100.96797,182.841393 131.117566,178.795474" id="Fill-18" fill="#1273EB"></path>
                            <g id="Group-22" transform="translate(0.000000, 90.921822)">
                                <mask id="mask-10" fill="white">
                                    <use xlink:href="#path-9"></use>
                                </mask>
                                <g id="Clip-21"></g>
                                <path d="M10.8147319,113.792557 C18.9914766,111.714675 25.1891574,97.6378654 26.1836043,54.8460104 C27.1764128,12.0541554 19.2601574,-0.393302443 14.4533915,0.375605359 C9.64334894,1.14298755 1.0488383,19.7111956 0.147774468,53.9886172 C-0.4928,78.3999143 0.581923404,116.393724 10.8147319,113.792557" id="Fill-20" fill="#1273EB" mask="url(#mask-10)"></path>
                            </g>
                            <path d="M169.017621,52.7731631 C169.677855,45.6272025 184.846855,47.4106414 181.625962,55.9845737 C178.968643,63.057305 168.472068,59.4049929 169.017621,52.7731631 M169.351834,71.0164161 C173.658919,72.2918266 178.509919,72.1606241 183.139749,70.0110386 C190.6366,66.5311206 194.989557,58.0136359 193.161217,50.4008385 C189.101515,33.4924949 163.652196,32.5130528 157.080983,48.3015981 C152.88694,58.3767313 159.775983,68.1772545 169.351834,71.0164161" id="Fill-23" fill="#92CDFA"></path>
                            <path d="M111.547606,38.58895 C112.922138,36.12814 113.230138,33.0494575 111.937521,30.4055742 C109.031181,24.4526411 100.562819,23.1467184 96.4162872,28.654173 C92.8005638,33.4583212 95.5561809,40.517322 101.347564,42.5646916 C105.825032,44.1482755 109.673394,41.9391912 111.547606,38.58895" id="Fill-25" fill="#92CDFA"></path>
                            <path d="M22.8011745,207.648739 C24.5705362,208.922624 27.8798979,208.5519 29.5820894,207.699084 C36.1893447,204.39156 44.1006851,194.98617 47.0316,189.318526 C54.2777915,175.31342 55.3246638,152.166854 52.8721319,135.568209 C49.9510468,115.77341 45.3752809,101.208405 28.7416426,88.8173945 C28.2452383,88.4481967 26.7707702,88.2651234 26.1433021,88.4237869 C24.5852809,88.8189201 24.8850894,89.2964362 26.3153234,89.2949106 C41.4482809,101.177893 43.2520468,122.237423 45.3572596,138.530945 C47.1626638,152.528424 46.2878128,163.863711 43.4502809,179.028282 C41.2336638,190.8777 32.2279404,205.338964 24.7917064,206.855421 C23.5253021,207.113249 21.8673447,206.974419 22.8011745,207.648739" id="Fill-27" fill="#92CDFA"></path>
                            <path d="M184.742987,148.822563 C193.617647,148.047552 204.097838,147.409847 212.887306,146.059682 C216.078711,145.569961 217.592498,140.404243 218.601689,136.411719 C219.969668,130.995801 220.482455,126.656965 220.48737,121.088485 C220.490647,116.118046 219.337285,104.142002 212.369604,103.778906 C205.929455,103.441746 199.658051,102.389075 193.201519,103.470733 C187.93603,104.355587 181.574519,106.805718 179.859221,112.052293 C175.643881,122.78649 176.451562,135.545173 180.247498,146.23055 C180.848753,147.928555 182.888434,148.984277 184.742987,148.822563" id="Fill-29" fill="#C7EBFF"></path>
                            <path d="M14.2081383,97.7190279 C25.4878191,128.148859 16.885117,204.037313 8.8132234,197.773156 C0.739691489,191.507472 7.11267021,130.330483 8.0465,125.820777" id="Stroke-31" stroke="#0161CD" stroke-width="0.658" stroke-linecap="round" stroke-linejoin="round"></path>
                            <path d="M30.8630745,104.091962 C38.2730957,116.627905 44.8312021,178.58143 23.7299255,202.751681" id="Stroke-33" stroke="#1273EB" stroke-width="0.658" stroke-linecap="round" stroke-linejoin="round"></path>
                            <path d="M93.6095553,176.651533 L75.6325128,175.85669 C75.6325128,175.85669 72.5115553,186.595464 68.1667894,191.753553 C77.3134064,193.520211 92.9329383,192.612472 92.9329383,192.612472 C92.9329383,192.612472 101.963236,181.849289 100.709938,176.671366 C98.1771298,177.023782 93.6095553,176.651533 93.6095553,176.651533 Z" id="Stroke-35" stroke="#1273EB" stroke-width="0.658" stroke-linecap="round" stroke-linejoin="round"></path>
                            <path d="M120.351819,87.9590859 C98.565734,91.2391489 81.0130106,99.2867455 77.7740957,120.276098 C74.1911383,143.479111 80.9294574,176.491801 111.868713,178.566632 C117.581457,179.291297 115.99067,183.340268 114.178713,186.054329 C112.370032,188.768391 107.274926,199.031174 100.779074,200.922931" id="Stroke-37" stroke="#0161CD" stroke-width="0.658" stroke-linecap="round" stroke-linejoin="round"></path>
                            <path d="M211.807013,151.128066 C189.734226,158.751542 156.137651,162.428264 146.437289,142.146795 C136.738566,121.866852 152.736545,101.600639 168.698481,98.5372129 C184.658779,95.4753122 215.860162,97.6340514 215.860162,97.6340514" id="Stroke-39" stroke="#2C8CF4" stroke-width="0.658" stroke-linecap="round" stroke-linejoin="round"></path>
                            <path d="M110.429304,216.681727 C114.63973,218.559754 119.96256,217.735924 123.584836,215.098143 C125.595028,213.635083 124.829943,209.78139 121.948177,209.796646 C119.803645,209.808851 115.214772,211.458036 113.506028,209.818005 C112.834326,209.174197 112.91624,207.814878 112.63773,206.981894 C112.085623,205.323556 111.223879,204.322755 109.457794,203.68505 C107.255921,202.891732 105.403006,204.325806 104.91807,206.245024 C103.931815,210.155165 106.636645,214.988299 110.429304,216.681727" id="Fill-41" fill="#2C8CF4"></path>
                            <path d="M112.661157,235.86796 C139.054136,235.248562 149.591668,222.091696 149.591668,222.091696" id="Stroke-43" stroke="#0161CD" stroke-width="0.658" stroke-linecap="round" stroke-linejoin="round"></path>
                            <path d="M174.263615,222.231441 C176.632594,223.238345 179.25387,222.823378 181.690019,222.27721 C183.10387,221.958357 184.594721,221.610518 186.011849,221.119271 C189.883147,220.885853 193.505423,219.315999 193.955955,215.62097 C194.842274,208.319397 183.174317,207.739665 178.16604,209.227136 C175.208913,210.104362 172.363189,212.012901 171.218019,214.787987 C170.046636,217.622571 171.229487,220.943826 174.263615,222.231441" id="Fill-45" fill="#1273EB"></path>
                            <path d="M112.496345,170.335352 C99.4866213,170.951699 91.3459191,168.985186 91.3459191,168.985186" id="Stroke-47" stroke="#5EB2FC" stroke-width="0.658" stroke-linecap="round" stroke-linejoin="round"></path>
                            <path d="M204.049017,164.638874 C181.502762,171.18527 128.549698,170.018177 115.539974,170.634524" id="Stroke-49" stroke="#92CDFA" stroke-width="0.658" stroke-linecap="round" stroke-linejoin="round"></path>
                            <path d="M212.882064,113.635877 L189.709979,114.012703" id="Stroke-51" stroke="#92CDFA" stroke-width="1.565" stroke-linecap="round" stroke-linejoin="round"></path>
                            <path d="M211.304547,136.146111 L188.202909,138.669471" id="Stroke-53" stroke="#92CDFA" stroke-width="1.565" stroke-linecap="round" stroke-linejoin="round"></path>
                            <path d="M48.7642638,94.8130446 C59.5524553,107.385603 77.6048596,165.393899 50.1306043,199.436376" id="Stroke-55" stroke="#1273EB" stroke-width="0.658" stroke-linecap="round" stroke-linejoin="round"></path>
                            <path d="M15.6767085,102.327898 C13.1045809,102.718454 3.34851702,193.939296 8.81387872,197.773156 C17.9064319,201.242394 23.2374532,124.446202 15.6767085,102.327898" id="Fill-57" fill="#0353A7"></path>
                            <path d="M191.689862,28.25309 C175.234798,13.4912807 150.601351,19.0445037 140.260415,28.7519647 C129.921117,38.4579001 119.978287,34.6392965 117.882904,32.1220388" id="Stroke-59" stroke="#1273EB" stroke-width="0.658" stroke-linecap="round" stroke-linejoin="round"></path>
                            <path d="M180.90167,61.3397724 L185.480713,66.6931404" id="Stroke-61" stroke="#1273EB" stroke-width="0.658" stroke-linecap="round" stroke-linejoin="round"></path>
                            <path d="M175.253966,63.1044463 L175.665179,69.9376567" id="Stroke-63" stroke="#1273EB" stroke-width="0.658" stroke-linecap="round" stroke-linejoin="round"></path>
                            <path d="M169.553509,61.5014872 L165.641253,67.2972823" id="Stroke-65" stroke="#1273EB" stroke-width="0.658" stroke-linecap="round" stroke-linejoin="round"></path>
                            <path d="M165.897811,57.1228318 L159.105428,59.7423054" id="Stroke-67" stroke="#1273EB" stroke-width="0.658" stroke-linecap="round" stroke-linejoin="round"></path>
                            <path d="M165.636994,51.5819663 L158.471079,50.0594068" id="Stroke-69" stroke="#1273EB" stroke-width="0.658" stroke-linecap="round" stroke-linejoin="round"></path>
                            <path d="M168.867226,46.922446 L163.967077,41.8192782" id="Stroke-71" stroke="#1273EB" stroke-width="0.658" stroke-linecap="round" stroke-linejoin="round"></path>
                            <path d="M174.396481,44.8611934 L173.56914,38.0600208" id="Stroke-73" stroke="#1273EB" stroke-width="0.658" stroke-linecap="round" stroke-linejoin="round"></path>
                            <path d="M180.186553,46.1596407 L183.738383,40.1670418" id="Stroke-75" stroke="#1273EB" stroke-width="0.658" stroke-linecap="round" stroke-linejoin="round"></path>
                            <path d="M184.103068,50.3379833 L190.72343,47.3630424" id="Stroke-77" stroke="#1273EB" stroke-width="0.658" stroke-linecap="round" stroke-linejoin="round"></path>
                            <path d="M184.701374,55.8556596 L191.949204,56.9968164" id="Stroke-79" stroke="#1273EB" stroke-width="0.658" stroke-linecap="round" stroke-linejoin="round"></path>
                        </g>
                        <g id="Group-34" transform="translate(1068.000000, 90.000000)">
                            <g id="Group-33" transform="translate(166.153846, 0.939186)">
                                <mask id="mask-12" fill="white">
                                    <use xlink:href="#path-11"></use>
                                </mask>
                                <g id="Clip-32"></g>
                                <path d="M0.642065934,3.53323256 C2.52316484,2.54881395 7.78074725,-0.629790698 9.1712967,0.162883721 C10.5598681,0.95555814 12.5438242,3.13590698 12.1442637,4.72323256 C11.7486593,6.3085814 2.22843956,10.2719535 2.22843956,10.2719535 L0.642065934,3.53323256 Z" id="Fill-31" fill="#FFB229" mask="url(#mask-12)"></path>
                            </g>
                            <path d="M0.000791208793,82.9600349 C0.000791208793,82.9600349 9.12342857,73.8432907 20.230022,67.4999186 C31.3366154,61.1585233 160.647824,4.0760814 165.406945,2.8860814 C170.168044,1.69805814 172.945187,9.22945349 171.754418,11.6074767 C170.565626,13.9855 33.3205714,75.4286395 26.9730989,78.5993372 C20.6276044,81.7700349 0.000791208793,82.9600349 0.000791208793,82.9600349" id="Fill-34" fill="#FCDB7E"></path>
                            <path d="M18.8576703,68.3141395 C8.38404396,74.5942558 0.00118681319,82.9598372 0.00118681319,82.9598372 C0.00118681319,82.9598372 16.9844835,81.9813488 24.8708571,79.4313488 C24.2359121,75.2465814 22.3923956,71.4769302 18.8576703,68.3141395" id="Fill-36" fill="#FFB229"></path>
                            <path d="M124.023165,36.3163837 C124.023165,36.3163837 163.820967,18.3458023 166.795912,16.7604535 C169.770857,15.1751047 171.620308,13.3248721 170.300967,9.62638372 C168.979648,5.9259186 165.539868,2.23731395 162.367121,2.75917442 C159.192396,3.28301163 155.281846,5.42975581 155.914813,6.73440698 C158.664264,6.4537093 161.837011,11.7395233 161.837011,14.1175465 C154.16822,18.3458023 132.74822,26.539407 128.517231,28.9174302 C124.28822,31.2954535 120.274813,38.0104535 124.023165,36.3163837" id="Fill-38" fill="#FFB229"></path>
                            <path d="M155.914813,6.73480233 C158.733495,6.56282558 162.220747,10.5855 161.837011,14.1179419 C150.105363,19.5757326 124.634374,28.0105 122.840308,34.964686" id="Stroke-40" stroke="#FCA120" stroke-width="0.635" stroke-linecap="round" stroke-linejoin="round"></path>
                            <path d="M161.866286,4.07944186 C164.564308,3.33223256 168.126725,7.53874419 168.148484,9.46606977" id="Stroke-42" stroke="#FFEEB6" stroke-width="0.635" stroke-linecap="round" stroke-linejoin="round"></path>
                            <path d="M6.74030769,79.2488953 C9.67173626,78.1142442 18.466022,71.8380814 18.466022,71.8380814" id="Stroke-44" stroke="#FFEEB6" stroke-width="0.635" stroke-linecap="round" stroke-linejoin="round"></path>
                            <path d="M172.028769,3.99167442 L174.853385,2.76016279" id="Stroke-46" stroke="#FFEEB6" stroke-width="0.635" stroke-linecap="round" stroke-linejoin="round"></path>
                        </g>
                        <g id="tableta" transform="translate(1150.231996, 408.647190) rotate(-18.000000) translate(-1150.231996, -408.647190) translate(984.231996, 313.647190)">
                            <path d="M319.406482,100.130362 C318.218448,100.523658 316.908238,101.285815 316.082083,102.416831 C319.828867,103.194115 326.954739,103.133608 329.703156,100.980952 C329.759009,100.936735 329.814862,100.882046 329.869551,100.822703 C326.969866,98.5664871 322.647101,98.6653929 319.406482,100.130362" id="Fill-1" fill="#1273EB"></path>
                            <path d="M318.069043,55.4828913 C318.069043,55.4828913 317.90963,132.600319 317.903812,135.470914 C317.899157,138.340346 326.343385,138.0925 326.346876,136.498371 C326.350366,134.903079 326.508616,58.0521147 326.514434,55.5003453 C326.519088,52.9497395 318.076024,52.294634 318.069043,55.4828913" id="Fill-3" fill="#2C8CF4"></path>
                            <path d="M318.069043,55.4828913 C318.078351,51.0193311 322.37319,43.5862699 322.37319,43.5862699 C322.37319,43.5862699 326.524906,50.39797 326.514434,55.5003453 C326.503961,60.6027206 318.069043,55.4828913 318.069043,55.4828913" id="Fill-5" fill="#2C8CF4"></path>
                            <g id="Group-9" transform="translate(312.844145, 72.667831)">
                                <mask id="mask-14" fill="white">
                                    <use xlink:href="#path-13"></use>
                                </mask>
                                <g id="Clip-8"></g>
                                <path d="M16.9142825,1.51849481 C14.5731242,-1.83382975 4.18685246,1.96997066 0.172440896,1.48475048 C0.172440896,1.48475048 -0.839888976,28.745514 2.73584631,29.6368297 C2.89525917,29.676392 3.06398082,29.7136272 3.23735686,29.7496987 C4.06351112,28.6186819 5.37372197,27.8553619 6.56291867,27.4620659 C9.80353786,25.9970966 14.1263028,25.8993544 17.0259879,28.1544064 C19.7127346,25.2244678 19.2077333,4.8056579 16.9142825,1.51849481" id="Fill-7" fill="#1273EB" mask="url(#mask-14)"></path>
                            </g>
                            <path d="M316.286062,3.91597121 C317.616054,27.8930624 316.832953,154.832247 316.638632,183.305479 C316.616524,186.448356 313.599315,188.981508 309.879294,188.984999 C265.106387,189.035033 11.4758645,189.25379 4.07422048,187.849328 C-4.04536326,186.308724 2.07399628,5.86616071 4.48264322,1.15242702 C5.33439663,-0.51384468 275.214559,0.0365369632 311.849265,0.314636779 C314.225331,0.332090742 316.17552,1.91109262 316.286062,3.91597121" id="Fill-10" fill="#5EB2FC"></path>
                            <path d="M289.590458,28.1469594 C290.627223,45.7161189 290.030298,138.725962 289.881357,159.589266 C289.863903,161.890862 287.516927,163.747964 284.620733,163.750291 C249.769822,163.781708 52.3503704,163.919013 46.5893989,162.888065 C40.2699005,161.758212 45.016215,29.5467673 46.8907706,26.0920461 C47.5528576,24.8725959 257.620615,25.3007998 286.135737,25.5067566 C287.985857,25.5207197 289.503188,26.6773357 289.590458,28.1469594" id="Fill-12" fill="#2C8CF4"></path>
                            <path d="M12.2837503,26.3492012 C14.8378469,25.0785527 35.3683622,23.8451393 38.1737959,26.4027267 C40.978066,28.9591505 39.5852397,51.9169303 37.387204,52.5499273 C35.1891682,53.1829244 14.7796671,53.7786864 12.2302248,52.4975654 C9.68194617,51.2176081 12.2837503,26.3492012 12.2837503,26.3492012" id="Fill-14" fill="#2C8CF4"></path>
                            <path d="M12.630386,84.4359911 C11.3597375,81.8830581 10.1274877,61.3525428 12.6839115,58.5471091 C15.2403353,55.7416754 38.1981151,57.1356653 38.8311122,59.3337011 C39.4652728,61.5317369 40.0598712,81.941238 38.7799139,84.4895166 C37.498793,87.0389589 12.630386,84.4359911 12.630386,84.4359911" id="Fill-16" fill="#2C8CF4"></path>
                            <path d="M38.0078669,101.512716 C39.2785154,104.066813 40.5107652,124.596164 37.9543414,127.402762 C35.396754,130.208195 12.4389742,128.814206 11.8059772,126.61617 C11.1729801,124.418134 10.5783817,104.007469 11.858339,101.459191 C13.1394599,98.910912 38.0078669,101.512716 38.0078669,101.512716" id="Fill-18" fill="#2C8CF4"></path>
                            <path d="M37.9408437,133.720631 C39.2114922,136.274728 40.443742,156.804079 37.8873182,159.610677 C35.3308944,162.414947 12.3731146,161.020957 11.7401175,158.822921 C11.1059569,156.626049 10.5113585,136.215384 11.7913158,133.667106 C13.0736003,131.117663 37.9408437,133.720631 37.9408437,133.720631" id="Fill-20" fill="#2C8CF4"></path>
                            <path d="M38.2033513,51.24216 C37.949687,51.9984985 37.6762416,52.4662647 37.3876694,52.5500437 C35.18847,53.1830408 14.7789689,53.7788027 12.2306903,52.4976818" id="Stroke-22" stroke="#1273EB" stroke-width="0.548" stroke-linecap="round" stroke-linejoin="round"></path>
                            <path d="M38.7794484,84.4899821 C37.4983275,87.0382607 12.6299206,84.4364566 12.6299206,84.4364566 C12.5170516,84.209555 12.4041827,83.839531 12.2948045,83.3519836" id="Stroke-24" stroke="#1273EB" stroke-width="0.548" stroke-linecap="round" stroke-linejoin="round"></path>
                            <path d="M38.5135664,126.360178 C38.3518263,126.816309 38.1656507,127.170042 37.9550396,127.402762 C35.3962885,130.208195 12.4396724,128.814206 11.8066753,126.61617 C11.749659,126.419522 11.6938063,126.077424 11.6391173,125.615476" id="Stroke-26" stroke="#1273EB" stroke-width="0.548" stroke-linecap="round" stroke-linejoin="round"></path>
                            <path d="M38.4465432,158.571584 C38.2836395,159.025387 38.0986275,159.377957 37.8880163,159.610677 C35.3304289,162.414947 12.3738128,161.020957 11.7408157,158.822921" id="Stroke-28" stroke="#1273EB" stroke-width="0.548" stroke-linecap="round" stroke-linejoin="round"></path>
                            <path d="M11.8076062,88.7602687 C15.0086631,88.2087235 37.0844359,88.0679282 37.7825944,89.6632204 C38.4830801,91.2596763 39.0509157,95.3066686 37.9943692,96.0478802 C36.3944225,97.1719154 11.5376516,96.3061989 11.1338832,95.6673838 C10.7312784,95.0285688 9.97843083,89.0756037 11.8076062,88.7602687" id="Fill-30" fill="#C7EBFF"></path>
                            <path d="M318.694011,136.05411 C318.683538,140.947037 325.698868,141.918641 325.710504,135.699212 C325.725631,128.52447 318.694011,136.05411 318.694011,136.05411" id="Fill-32" fill="#2C8CF4"></path>
                            <path d="M317.974675,100.940575 C321.722623,98.7204311 326.593442,98.0606713 328.49476,100.263361" id="Stroke-34" stroke="#0161CD" stroke-width="0.548" stroke-linecap="round" stroke-linejoin="round"></path>
                            <path d="M317.947447,75.5726358 C324.164548,73.3536553 327.430767,74.6359398 328.54433,76.0729828" id="Stroke-36" stroke="#0161CD" stroke-width="0.548" stroke-linecap="round" stroke-linejoin="round"></path>
                            <path d="M318.019008,79.8781795 C321.843753,77.8127938 326.071103,76.8656254 328.536766,79.9002879" id="Stroke-38" stroke="#0161CD" stroke-width="0.548" stroke-linecap="round" stroke-linejoin="round"></path>
                            <path d="M318.008768,84.6614963 C321.997581,81.001982 327.476961,81.0543439 329.064109,84.246092" id="Stroke-40" stroke="#0161CD" stroke-width="0.548" stroke-linecap="round" stroke-linejoin="round"></path>
                            <path d="M318.000856,88.3972263 C322.142099,85.7616778 327.054808,85.2136234 329.05736,87.8433539" id="Stroke-42" stroke="#0161CD" stroke-width="0.548" stroke-linecap="round" stroke-linejoin="round"></path>
                            <path d="M317.992827,92.4083798 C323.415192,89.2317585 327.459857,89.5436026 329.049331,91.6194606" id="Stroke-44" stroke="#0161CD" stroke-width="0.548" stroke-linecap="round" stroke-linejoin="round"></path>
                            <path d="M318.381468,96.1167652 C323.9679,93.0983931 328.246449,94.3981316 329.041186,95.5151853" id="Stroke-46" stroke="#0161CD" stroke-width="0.548" stroke-linecap="round" stroke-linejoin="round"></path>
                            <path d="M318.694011,136.05411 C320.471988,134.404128 325.074016,134.900984 325.710504,135.699212" id="Stroke-48" stroke="#1273EB" stroke-width="0.548" stroke-linecap="round" stroke-linejoin="round"></path>
                            <path d="M318.863314,54.0738911 C320.95779,53.3873685 324.331059,52.6740832 325.422514,54.0878542" id="Stroke-50" stroke="#1273EB" stroke-width="0.548" stroke-linecap="round" stroke-linejoin="round"></path>
                            <path d="M4.63635446,8.76689306 C4.22211373,3.66335418 7.61865499,3.67149936 10.8639286,3.35849162 C14.1092022,3.04664748 308.213139,2.28100029 311.452594,2.7033862 C314.69205,3.12577211 313.736736,9.40454452 313.736736,9.40454452" id="Stroke-52" stroke="#92CDFA" stroke-width="0.822" stroke-linecap="round" stroke-linejoin="round"></path>
                            <path d="M4.24538568,180.796995 C4.17091544,183.666427 4.59446495,185.899371 7.88860962,185.906352 C11.1815907,185.913334 172.977504,187.203764 182.166433,186.265904 C191.356527,185.329208 305.712567,187.371322 308.962495,186.95359 C312.212423,186.534695 315.364609,184.308733 315.072546,181.438138" id="Stroke-54" stroke="#2C8CF4" stroke-width="0.822" stroke-linecap="round" stroke-linejoin="round"></path>
                            <path d="M13.3905643,94.1531943 C11.9034866,93.9681823 11.2728168,90.3528847 14.4622376,90.3598663 C17.650495,90.3656843 34.021149,89.7617771 35.5082266,90.4029194 C36.9953043,91.0440616 37.8400761,93.7482624 35.5000814,94.1997382 C33.1612504,94.6500505 13.3905643,94.1531943 13.3905643,94.1531943 Z" id="Stroke-56" stroke="#F8FAFB" stroke-width="0.548" stroke-linecap="round" stroke-linejoin="round"></path>
                        </g>
                        <g id="Group-31" transform="translate(284.000000, 283.000000)">
                            <path d="M184.200074,62.9511558 C170.466144,25.8189502 130.357529,-3.33187931 82.2577758,0.3072974 C28.0577271,4.40727895 -10.7820593,52.8705576 2.68529308,103.409427 C12.3523599,139.688947 50.1547654,168.668452 88.9036259,174.131155 C117.615517,178.179936 146.180687,166.98868 165.454892,146.886561 C190.254907,121.020443 194.164716,89.8865774 184.200074,62.9511558" id="Fill-1" fill="#F8FAFB"></path>
                            <path d="M176.776452,65.3385161 C163.913226,28.8430323 126.347419,0.192064516 81.2970968,3.76883871 C30.5332258,7.79851613 -5.84419355,55.4307742 6.76935484,105.103032 C15.8235484,140.760452 51.2293548,169.243032 87.5216129,174.612065 C114.413226,178.591419 141.167419,167.592065 159.219677,147.834645 C182.447419,122.412065 186.109355,91.8120645 176.776452,65.3385161" id="Fill-1" fill="#B3B3FC"></path>
                            <path d="M134.851742,20.984 C79.7910968,-11.8127742 33.6007742,22.5865806 20.0330323,45.4852903 C6.46529032,68.384 0.914322581,104.616258 22.0962581,131.534968 C16.6072258,89.564 20.900129,73.6930323 36.3588387,55.6562581 C60.1981935,27.8375484 91.6323871,18.3343226 134.851742,20.984" id="Fill-3" fill="#8080F1"></path>
                            <path d="M60.8024516,164.658645 C119.753419,189.800581 160.928903,149.534774 171.31471,125.025742 C181.696645,100.518645 182.35471,63.8702581 157.764387,40.0270323 C184.776,71.0625161 174.353419,111.589613 161.445677,131.534774 C141.541161,162.287677 100.806968,177.413484 60.8024516,164.658645" id="Fill-5" fill="#D7D7FF"></path>
                            <path d="M150.704129,139.77529 C135.653806,137.31529 129.133161,130.680452 125.699613,124.188839 C122.268,117.697226 144.351871,120.006258 144.351871,120.006258 L152.449935,131.172065 L150.704129,139.77529 Z" id="Fill-9" fill="#8080F1"></path>
                            <path d="M130.379806,124.898194 C137.152065,124.969806 150.137226,137.726581 150.704323,139.776258 C153.524323,139.776258 160.228839,132.233677 160.706903,129.692387 C161.697871,124.416258 160.823032,121.433677 155.07271,116.982065 C149.057226,112.32529 139.075935,109.048516 139.075935,109.048516 L126.636581,115.191742 L130.379806,124.898194 Z" id="Fill-11" fill="#D7D7FF"></path>
                            <path d="M145.185097,75.6964516 C138.378,56.2196774 118.506387,40.9274194 94.6709032,42.8358065 C67.814129,44.9880645 48.5696129,70.4087097 55.2412258,96.9190323 C60.0315484,115.950645 78.7650968,131.15 97.9650968,134.018387 C112.190903,136.139677 126.345097,130.27129 135.894774,119.726774 C148.185097,106.157097 150.122516,89.8254839 145.185097,75.6964516" id="Fill-13" fill="#D7D7FF"></path>
                            <path d="M142.015355,76.6150323 C135.694065,58.5279355 117.241161,44.3292258 95.1089032,46.102129 C70.172129,48.0995484 52.299871,71.7066452 58.4972903,96.3240645 C62.9430968,113.993097 80.3392258,128.108581 98.1669677,130.769871 C111.378581,132.742129 124.520516,127.293742 133.388903,117.500194 C144.798581,104.900194 146.600516,89.7356774 142.015355,76.6150323" id="Fill-15" fill="#B3B3FC"></path>
                            <path d="M135.868645,75.2522581 C130.110581,58.7754839 113.298968,45.8406452 93.1370323,47.4548387 C70.4183226,49.2741935 54.1370323,70.7793548 59.7809032,93.2058065 C63.8338065,109.305161 79.6815484,122.162581 95.9221935,124.587742 C107.958968,126.385806 119.931871,121.42129 128.008645,112.49871 C138.406065,101.019355 140.045419,87.2058065 135.868645,75.2522581" id="Fill-17" fill="#8080F1"></path>
                            <path d="M130.381548,56.3586452 C121.211226,48.1715484 108.737032,43.2612258 94.8770323,44.3721935 C68.9221935,46.4509032 50.324129,71.018 56.7731613,96.6399355 C58.4009032,103.104452 61.6931613,109.112194 66.0847742,114.305097 M76.7473548,123.903161 C77.9609032,124.735419 79.2073548,125.517355 80.4789677,126.248968" id="Stroke-19" stroke="#F8FAFB" stroke-width="0.762" stroke-linecap="round" stroke-linejoin="round"></path>
                            <path d="M142.174065,126.155097 C141.850839,125.814452 141.585677,125.557032 141.421161,125.437032 C140.364387,124.658968 144.889548,114.638968 146.339226,114.991226 C147.786968,115.343484 157.621161,121.062839 158.348903,123.904129 C159.022452,126.530581 156.692129,132.311871 150.045677,134.704129 C147.889548,131.508645 145.116,128.653806 142.174065,126.155097" id="Fill-21" fill="#F8FAFB"></path>
                            <path d="M110.824645,56.3603871 C114.511742,56.5152258 120.459484,60.6629677 122.909806,63.7210323 C125.56529,67.0287742 127.084645,69.1674839 129.056903,72.9378065 C132.883355,80.2616774 133.378839,88.5436129 131.634968,96.6513548 C128.511097,111.186839 116.135613,120.769419 100.806581,120.463613 C91.7794839,120.283613 82.8317419,115.961677 77.4569032,109.129419" id="Stroke-23" stroke="#B3B3FC" stroke-width="0.762" stroke-linecap="round" stroke-linejoin="round"></path>
                            <path d="M83.5784516,106.458065 C91.8952258,115.66129 106.320387,117.180645 116.564903,110.365806 C126.877161,103.504516 128.73329,90.2658065 125.770065,78.9393548 C123.931355,71.9019355 119.282323,65.7141935 112.637806,62.5670968" id="Stroke-25" stroke="#B3B3FC" stroke-width="0.762" stroke-linecap="round" stroke-linejoin="round"></path>
                            <path d="M95.5126452,98.8107742 C105.182323,107.646258 120.828774,96.9391613 115.916516,84.7436774 C114.774581,81.910129 112.494581,79.4849677 109.643613,78.3294839" id="Stroke-27" stroke="#B3B3FC" stroke-width="0.762" stroke-linecap="round" stroke-linejoin="round"></path>
                            <path d="M99.9412258,94.1836129 C103.332194,98.6100645 111.112839,90.9978065 105.076065,87.4365161" id="Stroke-29" stroke="#B3B3FC" stroke-width="0.762" stroke-linecap="round" stroke-linejoin="round"></path>
                        </g>
                    </g>
                </g>
            </g>
        </g>
    </g>
</svg>